<?xml version="1.0" standalone="no"?>
<!DOCTYPE svg PUBLIC "-//W3C//DTD SVG 20010904//EN"
 "http://www.w3.org/TR/2001/REC-SVG-20010904/DTD/svg10.dtd">
<svg version="1.0" xmlns="http://www.w3.org/2000/svg"
 width="260.000000pt" height="260.000000pt" viewBox="0 0 260.000000 260.000000"
 preserveAspectRatio="xMidYMid meet">
<metadata>
Created by potrace 1.11, written by Peter Selinger 2001-2013
</metadata>
<g transform="translate(0.000000,260.000000) scale(0.100000,-0.100000)"
fill="#000000" stroke="none">
<path d="M2158 2039 c-138 -14 -228 -74 -277 -183 -50 -115 -129 -387 -241
-831 -43 -171 -82 -310 -86 -310 -5 0 -36 54 -69 120 -97 192 -214 500 -340
900 -49 157 -55 170 -78 173 -32 4 -83 -22 -101 -51 -7 -12 -19 -67 -25 -122
-43 -353 -199 -913 -288 -1032 -19 -26 -31 -33 -59 -33 -39 0 -99 22 -126 47
-24 22 -42 11 -67 -39 -43 -91 -17 -144 86 -174 70 -20 109 -8 162 52 56 64
111 184 180 390 61 182 141 489 162 622 7 40 15 69 19 65 4 -4 37 -98 74 -208
89 -262 205 -557 265 -670 61 -116 119 -205 137 -212 23 -9 62 6 95 35 27 25
34 46 83 252 110 462 237 912 273 968 23 37 96 64 191 70 81 5 85 6 103 36 40
64 46 135 13 142 -5 0 -44 -2 -86 -7z"/>
</g>
</svg>
